<svg xmlns="http://www.w3.org/2000/svg" width="390.09" height="91.536" viewBox="0 0 390.09 91.536">
  <g id="EFUS-logo" transform="translate(-527.681 -354.42)">
    <g id="Group_588" data-name="Group 588">
      <path id="Path_1499" data-name="Path 1499" d="M586.34,398.328v47.628L634.9,427.637l9.125-49.293Z" fill="#fff"/>
      <path id="Path_1500" data-name="Path 1500" d="M586.34,398.328v47.628l-48.557-18.318-9.125-49.293Z" fill="#f2f2f2"/>
      <g id="Group_587" data-name="Group 587">
        <path id="Path_1501" data-name="Path 1501" d="M586.34,394.5h.326L645,372.1l-58.66,16.561Z" fill="#fff"/>
        <path id="Path_1502" data-name="Path 1502" d="M527.681,372.1l58.334,22.4h.326v-5.837Z" fill="#f2f2f2"/>
        <path id="Path_1503" data-name="Path 1503" d="M527.681,362.58l58.334,22.4h.326v-4.329Z" fill="#f2f2f2"/>
        <path id="Path_1504" data-name="Path 1504" d="M645,362.58l-58.66,18.069v4.329h.326Z" fill="#fff"/>
        <path id="Path_1505" data-name="Path 1505" d="M527.681,354.42l58.334,22.4h.326v-3.5Z" fill="#f2f2f2"/>
        <path id="Path_1506" data-name="Path 1506" d="M645,354.42l-58.66,18.9v3.5h.326Z" fill="#fff"/>
      </g>
    </g>
    <g id="Group_589" data-name="Group 589">
      <path id="Path_1507" data-name="Path 1507" d="M681.062,370.453V396.81h14.3a18.031,18.031,0,0,0,5.1-.588,6.821,6.821,0,0,0,3.054-1.761,6.4,6.4,0,0,0,1.544-3.01,25.669,25.669,0,0,0,.575-4.332h1.8v23.2h-1.8a43.692,43.692,0,0,0-.826-4.772A6.862,6.862,0,0,0,703.3,402.5a5.769,5.769,0,0,0-2.909-1.615,21.132,21.132,0,0,0-5.029-.477h-14.3v22.025q0,2.5.072,3.964a4.524,4.524,0,0,0,.575,2.239,2.34,2.34,0,0,0,1.581.992,16.924,16.924,0,0,0,3.16.22h11.063q2.8,0,4.742-.146a14.992,14.992,0,0,0,3.34-.588,8.744,8.744,0,0,0,2.478-1.211,21.054,21.054,0,0,0,2.3-1.946,37.166,37.166,0,0,0,6.107-9.177h1.939l-5.676,16.739H662.457v-1.836h2.3a9.123,9.123,0,0,0,1.94-.219,9.718,9.718,0,0,0,1.9-.624,6.01,6.01,0,0,0,1.616-1.065,3.592,3.592,0,0,0,1.006-1.542,23.169,23.169,0,0,0,.574-6.461V378.456q0-6.387-1.221-7.856-1.723-1.982-5.819-1.982h-2.3v-1.836h50.285v14.611h-1.149a37.238,37.238,0,0,0-1.544-5.764,8.123,8.123,0,0,0-2.192-3.34,6.84,6.84,0,0,0-3.483-1.506,36.436,36.436,0,0,0-5.424-.33Z" fill="#fff"/>
      <path id="Path_1508" data-name="Path 1508" d="M748.04,370.453v26.21h11.853a13.6,13.6,0,0,0,3.555-.4,5.393,5.393,0,0,0,2.479-1.432,7.039,7.039,0,0,0,1.581-2.79,25.664,25.664,0,0,0,.933-4.478h1.8V410.1h-1.8a20.565,20.565,0,0,0-.5-4.257,6.932,6.932,0,0,0-1.4-2.9,5.5,5.5,0,0,0-2.587-1.651,13.61,13.61,0,0,0-4.058-.515H748.04V421.7q0,2.35.071,3.817a10.19,10.19,0,0,0,.36,2.423,3.553,3.553,0,0,0,.826,1.505,6.872,6.872,0,0,0,1.4,1.066,8.538,8.538,0,0,0,4.383,1.173h2.37v1.836H729.434v-1.836h2.3a16.168,16.168,0,0,0,3.054-.256,3.76,3.76,0,0,0,2.191-1.249,6.968,6.968,0,0,0,1.329-3.009,25.364,25.364,0,0,0,.466-5.47V378.6q0-2.275-.107-3.781a13.9,13.9,0,0,0-.359-2.46,3.867,3.867,0,0,0-.754-1.541,4.394,4.394,0,0,0-1.365-1.028,10.05,10.05,0,0,0-2.156-.882,8.78,8.78,0,0,0-2.3-.293h-2.3v-1.836H778v14.684h-1.078A25.7,25.7,0,0,0,774.8,375.7a8.915,8.915,0,0,0-6.861-4.882,35.655,35.655,0,0,0-5.531-.368Z" fill="#fff"/>
      <path id="Path_1509" data-name="Path 1509" d="M836.927,368.618v-1.836h23.06v1.836h-2.443a6.7,6.7,0,0,0-5.891,3.3q-1.007,1.469-1.005,7.121V406.06q0,9.84-2.011,15.639a19.138,19.138,0,0,1-2.874,5.213,17.9,17.9,0,0,1-4.742,4.222A25.338,25.338,0,0,1,834.3,434a33.08,33.08,0,0,1-8.8,1.064,41.1,41.1,0,0,1-9.41-.955,22.224,22.224,0,0,1-6.9-2.789,17.247,17.247,0,0,1-4.741-4.4,22.741,22.741,0,0,1-3.018-5.8q-1.58-4.476-1.58-16.445V378.6a26.119,26.119,0,0,0-.4-5.029,7.246,7.246,0,0,0-1.257-3.047,4.315,4.315,0,0,0-2.191-1.505,10.806,10.806,0,0,0-3.124-.4h-2.515v-1.836h28.231v1.836h-2.513a11.092,11.092,0,0,0-3.018.367,4.2,4.2,0,0,0-2.155,1.432,7.566,7.566,0,0,0-1.328,3.01,22.9,22.9,0,0,0-.468,5.176v29.073a62.943,62.943,0,0,0,.575,8.59,21.365,21.365,0,0,0,2.37,7.452,13.449,13.449,0,0,0,5.137,5.212,17.54,17.54,0,0,0,8.872,1.947,24.017,24.017,0,0,0,6.106-.772,23.3,23.3,0,0,0,5.352-2.093,17.314,17.314,0,0,0,4.2-3.193,12.415,12.415,0,0,0,2.658-4.074q1.867-4.332,1.868-15.125V378.6q0-6.168-1.365-7.782a6.846,6.846,0,0,0-5.531-2.2Z" fill="#fff"/>
      <path id="Path_1510" data-name="Path 1510" d="M913.459,365.314v23.053h-1.8q-1.223-9.322-5.963-14.243a16.037,16.037,0,0,0-12.068-4.919,11.693,11.693,0,0,0-4.6.881,12.887,12.887,0,0,0-3.663,2.313,10.27,10.27,0,0,0-2.443,3.267,8.891,8.891,0,0,0-.862,3.818,8.663,8.663,0,0,0,.718,3.487q.719,1.653,4.454,5.176,6.251,4.038,11.135,6.681,4.6,2.571,12.428,7.782a18.134,18.134,0,0,1,5.173,6.277,16.964,16.964,0,0,1,1.8,7.6,17.264,17.264,0,0,1-1.509,7.122,18.243,18.243,0,0,1-4.2,5.91,20.208,20.208,0,0,1-6.5,4.038,22.5,22.5,0,0,1-8.333,1.505,30.047,30.047,0,0,1-5.316-.44q-.432-.075-2.263-.624t-3.916-1.139q-2.083-.585-3.878-1.1a14.716,14.716,0,0,0-2.083-.515,2.476,2.476,0,0,0-1.905.734,6.255,6.255,0,0,0-1.041,3.084h-1.8V412.154h1.8a36.343,36.343,0,0,0,3.376,10.793,13.043,13.043,0,0,0,2.7,3.268,19.612,19.612,0,0,0,3.806,2.642,20.372,20.372,0,0,0,9.519,2.386,15.691,15.691,0,0,0,5.424-.881,12.555,12.555,0,0,0,4.094-2.386,10.38,10.38,0,0,0,2.586-3.487,10.022,10.022,0,0,0,.9-4.185,10.558,10.558,0,0,0-1.329-4.993,15.9,15.9,0,0,0-4.491-4.919q-3.089-1.908-7.327-4.478-8.118-4.771-14.439-9.177a20.912,20.912,0,0,1-5.352-6.277,15.816,15.816,0,0,1-1.832-7.6,16.188,16.188,0,0,1,1.437-6.718,17.688,17.688,0,0,1,3.987-5.616,18.694,18.694,0,0,1,6.07-3.818,20.5,20.5,0,0,1,7.615-1.4,27.27,27.27,0,0,1,10.991,2.57q1.363.588,2.3.954a3.209,3.209,0,0,0,1.508.294,2.938,2.938,0,0,0,2.083-.734,5.788,5.788,0,0,0,1.222-3.084Z" fill="#fff"/>
    </g>
  </g>
</svg>
